<?xml version="1.0" encoding="UTF-8"?>
<svg width="134px" height="422px" viewBox="0 0 134 422" version="1.1" xmlns="http://www.w3.org/2000/svg" xmlns:xlink="http://www.w3.org/1999/xlink">
    <!-- Generator: Sketch 48.2 (47327) - http://www.bohemiancoding.com/sketch -->
    <title>artwork</title>
    <desc>Created with Sketch.</desc>
    <defs></defs>
    <g id="Skills" stroke="none" stroke-width="1" fill="none" fill-rule="evenodd" transform="translate(-309.000000, -268.000000)">
        <g id="artwork" transform="translate(310.000000, 268.000000)">
            <g id="react-logo" transform="translate(22.000000, 313.000000)" fill="#414141">
                <path d="M32.1421725,11.2826476 C31.4744409,11.039356 30.7763578,10.7960644 30.0479233,10.5831843 C30.2300319,9.85330948 30.3817891,9.1234347 30.5031949,8.42397138 C31.1405751,4.40966011 30.442492,1.58139535 28.5,0.486583184 C27.9233227,0.152057245 27.2859425,0 26.557508,0 C24.4329073,0 21.7316294,1.58139535 19,4.22719141 C16.2683706,1.58139535 13.5670927,0 11.442492,0 C10.7140575,0 10.0766773,0.152057245 9.5,0.486583184 C7.55750799,1.6118068 6.85942492,4.44007156 7.49680511,8.42397138 C7.61821086,9.1234347 7.76996805,9.85330948 7.95207668,10.5831843 C7.22364217,10.7960644 6.52555911,11.0089445 5.85782748,11.2826476 C2.06389776,12.7423971 0,14.7495528 0,17 C0,19.2504472 2.0942492,21.2576029 5.85782748,22.7173524 C6.52555911,22.960644 7.22364217,23.2039356 7.95207668,23.4168157 C7.76996805,24.1466905 7.61821086,24.8765653 7.49680511,25.5760286 C6.85942492,29.5903399 7.55750799,32.4186047 9.5,33.5134168 C10.0766773,33.8479428 10.7140575,34 11.442492,34 C13.5974441,34 16.298722,32.4186047 19,29.7728086 C21.7316294,32.4186047 24.4329073,34 26.557508,34 C27.2859425,34 27.9233227,33.8479428 28.5,33.5134168 C30.442492,32.3881932 31.1405751,29.5599284 30.5031949,25.5760286 C30.3817891,24.8765653 30.2300319,24.1466905 30.0479233,23.4168157 C30.7763578,23.2039356 31.4744409,22.9910555 32.1421725,22.7173524 C35.9361022,21.2576029 38,19.2504472 38,17 C38,14.7495528 35.9361022,12.7423971 32.1421725,11.2826476 Z M27.6501597,2.00715564 C28.8945687,2.73703041 29.3194888,4.98747764 28.8035144,8.18067979 C28.7124601,8.81932021 28.5607029,9.48837209 28.3785942,10.1878354 C26.8003195,9.82289803 25.1309904,9.57960644 23.370607,9.42754919 C22.3386581,7.96779964 21.2763578,6.66010733 20.2140575,5.47406082 C22.4600639,3.25402504 24.7364217,1.73345259 26.5878594,1.73345259 C26.9824281,1.73345259 27.3466454,1.82468694 27.6501597,2.00715564 Z M24.2507987,20.0411449 C23.7044728,21.0143113 23.0670927,21.9874776 22.399361,22.960644 C21.2763578,23.0518784 20.1533546,23.0822898 19,23.0822898 C17.8162939,23.0822898 16.6932907,23.0518784 15.600639,22.960644 C14.9329073,21.9874776 14.3258786,21.0143113 13.7795527,20.0411449 C13.2028754,19.0375671 12.6565495,18.0035778 12.1709265,17 C12.6565495,15.9964222 13.2028754,14.9624329 13.7795527,13.9588551 C14.3258786,12.9856887 14.9632588,12.0125224 15.6309904,11.039356 C16.7539936,10.9481216 17.8769968,10.9177102 19.0303514,10.9177102 C20.2140575,10.9177102 21.3370607,10.9481216 22.4297125,11.039356 C23.0974441,12.0125224 23.7044728,12.9856887 24.2507987,13.9588551 C24.827476,14.9624329 25.3738019,15.9964222 25.8594249,17 C25.3434505,18.0035778 24.827476,19.0071556 24.2507987,20.0411449 Z M26.7699681,19.0375671 C27.2252396,20.1019678 27.5894569,21.1359571 27.9233227,22.1699463 C26.8913738,22.4132379 25.798722,22.5957066 24.6453674,22.7477639 C25.0095847,22.1699463 25.4041534,21.5617174 25.7380192,20.9230769 C26.1022364,20.2844365 26.4361022,19.6457961 26.7699681,19.0375671 Z M19,27.2790698 C18.2715655,26.4883721 17.5734824,25.6368515 16.9057508,24.7549195 C17.6038339,24.7853309 18.3019169,24.8157424 19,24.8157424 C19.6980831,24.8157424 20.3961661,24.7853309 21.0942492,24.7549195 C20.4265176,25.6368515 19.7284345,26.4883721 19,27.2790698 Z M13.3546326,22.7173524 C12.201278,22.5652952 11.1086262,22.3828265 10.0766773,22.1395349 C10.4105431,21.1359571 10.7747604,20.0715564 11.2300319,19.0071556 C11.5638978,19.6153846 11.8977636,20.254025 12.2619808,20.862254 C12.6261981,21.5313059 12.9904153,22.1091234 13.3546326,22.7173524 Z M11.2300319,14.9624329 C10.7747604,13.8980322 10.4105431,12.8640429 10.0766773,11.8300537 C11.1086262,11.5867621 12.201278,11.4042934 13.3546326,11.2522361 C12.9904153,11.8300537 12.5958466,12.4382826 12.2619808,13.0769231 C11.8977636,13.7155635 11.5638978,14.3542039 11.2300319,14.9624329 Z M19,6.72093023 C19.7284345,7.51162791 20.4265176,8.36314848 21.0942492,9.2450805 C20.3961661,9.21466905 19.6980831,9.1842576 19,9.1842576 C18.3019169,9.1842576 17.6038339,9.21466905 16.9057508,9.2450805 C17.5734824,8.36314848 18.2715655,7.51162791 19,6.72093023 Z M25.7380192,13.1073345 L24.6453674,11.2826476 C25.798722,11.4347048 26.8913738,11.6171735 27.9233227,11.8604651 C27.5894569,12.8640429 27.2252396,13.9284436 26.7699681,14.9928444 C26.4361022,14.3542039 26.1022364,13.7155635 25.7380192,13.1073345 Z M9.19648562,8.18067979 C8.68051118,4.98747764 9.10543131,2.73703041 10.3498403,2.00715564 C10.6533546,1.82468694 11.0175719,1.73345259 11.4121406,1.73345259 C13.2332268,1.73345259 15.5095847,3.2236136 17.7859425,5.47406082 C16.7236422,6.62969589 15.6613419,7.96779964 14.629393,9.42754919 C12.8690096,9.57960644 11.1996805,9.85330948 9.62140575,10.1878354 C9.43929712,9.48837209 9.31789137,8.81932021 9.19648562,8.18067979 Z M1.69968051,17 C1.69968051,15.5706619 3.42971246,14.0500894 6.46485623,12.9248658 C7.07188498,12.6815742 7.73961661,12.4686941 8.40734824,12.2862254 C8.89297125,13.8067979 9.5,15.4186047 10.2284345,17.0304114 C9.5,18.6422182 8.86261981,20.2236136 8.40734824,21.744186 C4.21884984,20.5277281 1.69968051,18.7030411 1.69968051,17 Z M10.3498403,31.9928444 C9.10543131,31.2629696 8.68051118,29.0125224 9.19648562,25.8193202 C9.28753994,25.1806798 9.43929712,24.5116279 9.62140575,23.8121646 C11.1996805,24.177102 12.8690096,24.4203936 14.629393,24.5724508 C15.6613419,26.0322004 16.7236422,27.3398927 17.7859425,28.5259392 C15.5399361,30.745975 13.2635783,32.2665474 11.4121406,32.2665474 C11.0175719,32.2665474 10.6533546,32.1753131 10.3498403,31.9928444 Z M28.8035144,25.8193202 C29.3194888,29.0125224 28.8945687,31.2629696 27.6501597,31.9928444 C27.3466454,32.1753131 26.9824281,32.2665474 26.5878594,32.2665474 C24.7667732,32.2665474 22.4904153,30.7763864 20.2140575,28.5259392 C21.2763578,27.3703041 22.3386581,26.0322004 23.370607,24.5724508 C25.1309904,24.4203936 26.8003195,24.1466905 28.3785942,23.8121646 C28.5607029,24.5116279 28.6821086,25.1806798 28.8035144,25.8193202 Z M31.5351438,21.0751342 C30.928115,21.3184258 30.2603834,21.5313059 29.5926518,21.7137746 C29.1070288,20.1932021 28.5,18.5813953 27.7715655,16.9695886 C28.5,15.3577818 29.1373802,13.7763864 29.5926518,12.255814 C33.7811502,13.4722719 36.3003195,15.2969589 36.3003195,17 C36.3003195,18.4293381 34.5399361,19.9499106 31.5351438,21.0751342 Z" id="Shape" fill-rule="nonzero"></path>
                <ellipse id="Oval" cx="19.3454545" cy="17.3469388" rx="2.76363636" ry="2.7755102"></ellipse>
            </g>
            <g id="sass-logo" transform="translate(72.000000, 367.000000)" fill="#414141">
                <path d="M0,12.286308 C0,12.5068942 0.0656987102,12.6524874 0.102515379,12.7940015 C0.342458494,13.7143136 0.858209239,14.5040939 1.47012766,15.2245292 C2.34166707,16.2512122 3.40903307,17.0777046 4.50242465,17.8549337 C5.45077125,18.5289298 6.41847834,19.1878645 7.37063356,19.8568401 C7.53408687,19.971683 7.68865341,20.1037837 7.86607166,20.2446702 C7.71340944,20.3262526 7.58645541,20.3981078 7.45442322,20.4643151 C6.19789572,21.0943822 4.98897597,21.8006974 3.87463698,22.6563712 C3.20305016,23.1722229 2.5536803,23.7203938 2.09505887,24.43675 C1.35713857,25.5889443 1.09593066,26.8164455 1.64595899,28.127098 C1.80655584,28.5099077 2.05157712,28.8406301 2.39720946,29.0850635 C2.50924639,29.1641357 2.63493088,29.2425803 2.76601092,29.2733306 C3.10180432,29.3514614 3.44394543,29.4026073 3.78386485,29.4644217 L4.74649377,29.4637941 C5.81100331,29.3699744 6.77997994,29.0094429 7.65564536,28.4120088 C9.02420979,27.4782042 9.94621343,26.2262283 10.3426274,24.619369 C10.630813,23.4514857 10.6425563,22.2823473 10.3029543,21.1197982 C10.2715331,21.0118584 10.23186,20.9061151 10.1905999,20.8016269 C10.1493399,20.6971387 10.10078,20.5954745 10.0436507,20.4652564 L12.2259904,19.2245765 L12.2586811,19.252189 C12.2190079,19.3805244 12.1767957,19.508546 12.1409312,19.6381365 C11.8816276,20.5744513 11.7092875,21.5270826 11.7711776,22.4988544 C11.8371937,23.5343232 12.1295054,24.5035848 12.7426933,25.3686719 C13.2384488,26.0683978 14.419756,26.0944414 14.9466153,25.3922053 C15.1335551,25.1427514 15.314782,24.8820015 15.4509401,24.6036801 C15.8067288,23.877283 16.1361745,23.1380211 16.4760939,22.4037795 L16.5354449,22.2694824 C16.5110063,22.6171489 16.4824416,22.9224553 16.4694288,23.2280755 C16.4491162,23.7053324 16.4773635,24.1797654 16.6424037,24.6338028 C16.7836401,25.0222605 17.0239006,25.3125055 17.4739526,25.3636514 C17.7818161,25.3984808 18.0271548,25.2591632 18.2534503,25.082506 C18.6070173,24.8066947 18.8942508,24.4659313 19.1075336,24.0787288 C19.7108826,22.9833283 20.3304183,21.8945172 20.8772727,20.7715042 C21.4688785,19.5568679 21.9862162,18.3067746 22.5356098,17.071429 L22.6263819,16.8524116 C22.7561924,17.3566536 22.8466471,17.8505408 23.0132743,18.3180707 C23.2068792,18.8605936 23.4465049,19.3902515 23.7073954,19.9051619 C23.8308582,20.1483402 23.8165759,20.3061708 23.6455054,20.5101267 C22.9294846,21.3636041 22.2258419,22.2274361 21.5215644,23.0903267 C21.3657284,23.2807902 21.2105271,23.4747053 21.0807166,23.6827404 C21.0023225,23.8091931 20.9502713,23.9632583 20.9283717,24.1107342 C20.8861595,24.3925072 21.0623082,24.6642393 21.3673153,24.7291914 C21.6459794,24.7884956 21.9427344,24.8104601 22.2267941,24.7897507 C23.2097357,24.7182092 24.1022225,24.3771321 24.8912418,23.7991522 C25.9135391,23.0504769 26.2417153,22.0288143 25.9941549,20.8179434 C25.9271867,20.4894174 25.808802,20.1699909 25.6935912,19.8533885 C25.6418575,19.7106193 25.6383662,19.610524 25.7326296,19.4774819 C26.5498962,18.3237187 27.2481433,17.099669 27.8975132,15.8473794 C27.9232214,15.7981161 27.9495643,15.7488529 27.994633,15.6961382 C28.2050593,16.7786737 28.5218096,17.821987 29.0892941,18.7686565 C28.799839,19.0444677 28.5132402,19.2945491 28.2539366,19.5700466 C27.6829609,20.1768941 27.1878402,20.8358288 26.9294887,21.6394153 C26.8184039,21.9858267 26.7330274,22.3378861 26.7825394,22.7078308 C26.8593466,23.2823591 27.3354242,23.6557555 27.9070347,23.5249099 C29.1302368,23.2450195 30.186177,22.6751979 30.9577401,21.6657727 C31.476982,20.9861286 31.5242724,20.2280399 31.3068636,19.4338667 C31.2471953,19.2179872 31.1764184,19.0055592 31.100246,18.757988 C31.4020792,18.6654234 31.6962951,18.5543458 32.0006674,18.4856283 C33.5809277,18.1291761 35.1440492,18.1913042 36.6668628,18.7554778 C37.5558584,19.0849451 38.2741008,19.6362538 38.7000316,20.5035374 C39.2202257,21.5637947 38.9326748,22.5697683 37.9218034,23.239999 C37.82754,23.3024409 37.7196291,23.3517042 37.6415523,23.429835 C37.5936272,23.4778431 37.5647451,23.5738593 37.5764884,23.6400665 C37.5831535,23.6786613 37.6863036,23.7269832 37.7456546,23.7263556 C38.0779568,23.7238454 38.3474167,23.551581 38.6060856,23.37461 C39.2541859,22.9312411 39.7270896,22.3347483 39.8289703,21.5493609 L39.8489655,21.4903705 L39.8245269,20.9789117 C39.8146879,20.9494165 39.8318267,20.9202351 39.829605,20.8979569 C39.6918599,19.7542345 39.0739112,18.8671829 38.1750766,18.1718499 C37.1340536,17.3670083 35.9048212,17.0356582 34.6048119,16.9832572 C33.5453806,16.9405834 32.5040401,17.0962175 31.5055467,17.4548662 C31.2208523,17.5568442 30.938697,17.6776489 30.6524156,17.7915505 C30.614012,17.722833 30.572752,17.6569395 30.5387918,17.5888496 C30.2448932,16.9939257 29.8887871,16.4253592 29.8100756,15.7432049 C29.7542159,15.258731 29.6856607,14.7748847 29.802141,14.295745 C29.9141779,13.8348045 30.0601751,13.3817085 30.1976028,12.9270436 C30.2683797,12.6929648 30.2185502,12.5618055 29.9925721,12.4563759 C29.9138606,12.4196638 29.8281666,12.3876584 29.7431074,12.3754211 C29.1876835,12.2957214 28.6398769,12.3412192 28.1019092,12.495912 C27.9114781,12.5508232 27.7730982,12.6562528 27.730886,12.8646016 C27.7067648,12.9841512 27.6575701,13.0986803 27.6232925,13.216661 C27.4826909,13.7070967 27.383032,14.2069457 27.1557843,14.6741618 C26.5863955,15.8461242 25.9363908,16.9738439 25.2711517,18.0934053 C25.1991053,18.21421 25.1232503,18.3328183 25.0324781,18.4793528 C24.7988827,17.996134 24.5497354,17.5624922 24.4741978,17.0541712 C24.3888212,16.4793291 24.3215356,15.9054284 24.4662632,15.3349792 C24.5738567,14.9094956 24.7144583,14.4918566 24.8439514,14.072021 C24.9052067,13.8724579 24.8769594,13.767656 24.6941456,13.6625402 C24.6017866,13.6095116 24.4973669,13.5624449 24.3932646,13.5470697 C23.8172107,13.4626633 23.2497262,13.5069061 22.6939849,13.6845047 C22.5216448,13.7397297 22.4311901,13.8498659 22.3785041,14.0255818 C22.2236202,14.5439438 22.091588,15.0748569 21.8741793,15.5678028 C20.9937531,17.5634336 20.0879361,19.5487097 19.1830712,21.533672 C18.9942271,21.9481733 18.7730097,22.3482408 18.5600443,22.7517598 C18.5060889,22.8540516 18.4273774,22.944106 18.3600917,23.0401222 C18.3061363,22.9770527 18.2851889,22.9337513 18.2855062,22.8904499 C18.2870932,22.635348 18.2563068,22.3727155 18.3055015,22.1260856 C18.4543551,21.3799205 18.625743,20.6378346 18.8063351,19.8985726 C18.9555061,19.2879598 19.1291158,18.682995 19.2944734,18.0764613 C19.3500158,17.8734466 19.3509679,17.6836107 19.2033839,17.5129152 C18.9555061,17.2270631 18.4375337,17.1643074 18.1303049,17.3845799 L17.9944641,17.4605142 L18.0208071,17.2440071 C18.0855536,16.7799288 18.0985664,16.3174194 17.9697081,15.8602443 C17.8091112,15.2904226 17.3977802,14.9625242 16.7998267,14.9807233 C16.5211626,14.9891954 16.2285336,15.0362621 15.9704995,15.1366712 C14.8853599,15.5571343 14.0509546,16.3017305 13.3406468,17.1975679 C13.2762176,17.2788365 13.1911584,17.3528882 13.1003863,17.402779 C12.1821913,17.9060796 11.2611398,18.4031046 10.3404057,18.9020123 L9.31556929,19.4570864 C9.04071382,19.1979054 8.79093177,18.9289973 8.50750689,18.7008803 C7.6419978,18.0030371 6.76252376,17.3224517 5.89098435,16.632453 C5.11846908,16.0208988 4.37007508,15.3839286 3.7975124,14.5740665 C3.37158164,13.9716119 3.09704355,13.3123635 3.07070059,12.5674535 C3.03737515,11.6182737 3.30969155,10.7509902 3.79846456,9.94363829 C4.42371315,8.91067971 5.27652685,8.08167711 6.21408235,7.33080534 C7.20591071,6.53694593 8.27867226,5.86294987 9.39047217,5.24763038 C10.9459764,4.38693616 12.5459146,3.62508214 14.2613809,3.12209533 C16.020329,2.6062436 17.8049852,2.3109781 19.6458187,2.51681675 C20.3694566,2.59777158 21.0721472,2.76156392 21.717391,3.11142686 C22.2115596,3.37907986 22.6168603,3.72957036 22.8053871,4.27742749 C22.9913747,4.81649882 22.9856618,5.36278706 22.8568035,5.91033041 C22.5949608,7.01922337 21.9808206,7.93325992 21.207988,8.75002516 C19.940352,10.0889177 18.3940519,11.000444 16.6531948,11.6025848 C15.648671,11.9499375 14.6152652,12.1680135 13.5539296,12.2561853 C12.6877857,12.3280405 11.8397328,12.2521062 11.0196098,11.9543304 C10.4765639,11.7569638 10.0036601,11.455109 9.62343281,11.0170743 C9.55551241,10.9386297 9.4685489,10.8535957 9.34191225,10.9270199 C9.21781469,10.9991889 9.19591512,11.1159145 9.23749256,11.2342089 C9.3069999,11.4306342 9.37111168,11.6352178 9.47933999,11.8109337 C9.751339,12.2517924 10.1480703,12.5715326 10.5847922,12.8457749 C11.423641,13.3732365 12.3611965,13.5505213 13.3333469,13.5916263 C14.8085528,13.6546957 16.2478941,13.4369335 17.6669227,13.0456518 C19.6927917,12.4871262 21.4542788,11.5006068 22.8669598,9.94426584 C24.0431889,8.64836095 24.8833071,7.18583971 25.0632645,5.41989473 C25.1511801,4.5579454 25.0575516,3.71356766 24.6493943,2.92723893 C24.2066422,2.0753305 23.5026821,1.44181186 22.6609769,1.00534607 C21.4352357,0.369944763 20.1123747,0 18.7469841,0 L17.3790545,0 C15.7254782,0 14.1268096,0.468471188 12.5728923,1.02731056 C11.3966632,1.45059766 10.2432859,1.95013291 9.12355132,2.5030105 C6.6850818,3.70760587 4.4141916,5.1600862 2.54891953,7.15728587 C1.61961603,8.15227726 0.832818433,9.25018797 0.380227318,10.5429551 C0.247877742,10.9213719 0.122193253,11.3270874 0.0276125014,11.7183691 L0,12.286308 Z M8.86329556,23.0184715 C8.75760633,24.4176095 8.1161711,25.5519185 7.0678482,26.4706617 C6.47814674,26.987141 5.80179914,27.3548893 5.01404939,27.484166 C4.72840282,27.530919 4.43609117,27.542215 4.159014,27.4251757 C3.76386959,27.2582456 3.67531915,26.9115204 3.66770191,26.5422032 C3.65595866,25.9535549 3.86448065,25.4213867 4.15044461,24.9149483 C4.52368945,24.2547585 5.07086132,23.7514579 5.65516724,23.2814178 C6.57558395,22.5405869 7.57407739,21.9136576 8.5966921,21.3218715 L8.67381667,21.2904937 C8.83187444,21.867846 8.9070947,22.4379814 8.86329556,23.0184715 Z M16.8480692,16.9377594 C16.7734837,17.3845799 16.6801725,17.8317141 16.5481403,18.2647283 C16.0917406,19.7636479 15.5055304,21.2161282 14.8717124,22.6491543 C14.7545973,22.914297 14.5841615,23.1562202 14.4359427,23.4075567 C14.413091,23.4464652 14.3791308,23.4800395 14.3461227,23.5123587 C14.1626741,23.6915262 13.9887471,23.6821128 13.8960707,23.4477204 C13.7881597,23.1753607 13.7218263,22.8838605 13.664697,22.5954982 C13.6262934,22.4018969 13.6354975,22.1985685 13.6234369,22.0002605 C13.6358149,20.5901402 14.0709498,19.3086692 14.8091875,18.1156836 C15.1135598,17.623679 15.4449098,17.154894 15.951139,16.8436259 C16.1066577,16.7479234 16.2812195,16.6710477 16.4573682,16.6220983 C16.7271455,16.5471052 16.8928205,16.6704202 16.8480692,16.9377594 Z M22.2956666,23.799466 L24.2536152,21.53932 C24.3351831,22.3786773 22.8920332,24.0542541 22.2956666,23.799466 Z M28.5491047,22.2785819 C28.4107249,22.3570266 28.2599669,22.4135067 28.1180958,22.4859895 C27.9882853,22.5525105 27.9454383,22.4853619 27.9416297,22.3749119 C27.9390906,22.2999189 27.9501991,22.2214743 27.9711465,22.1486777 C28.2355283,21.2267967 28.7220796,20.4398404 29.446035,19.7997324 L29.4968166,19.7740026 C29.8411794,20.7263201 29.4431785,21.7721436 28.5491047,22.2785819 Z" id="Shape"></path>
            </g>
            <g id="mongo-logo" transform="translate(31.000000, 210.000000)" fill="#414141">
                <path d="M18.7282166,18.5278651 C18.5979803,16.8446957 18.2016396,15.2216143 17.6504233,13.6315639 C16.5085678,10.0810955 14.676108,6.93894497 12.0949656,4.23533214 C11.4423762,3.5515226 10.7165729,2.92499002 10.2614499,2.07391772 C9.97352207,1.53558462 9.69932188,0.989872284 9.41878588,0.447322477 L9.24103094,0 C9.2111118,0.10260657 9.19210434,0.139151375 9.19104837,0.176047573 C9.16816902,1.06050215 8.66623133,1.66032891 8.04109714,2.22009694 C7.33817318,2.85014345 6.68382383,3.53395298 6.00835508,4.19421923 C5.31563882,5.10362266 4.62327455,6.0130261 3.93126228,6.92207814 C3.37089425,7.9499008 2.8112302,8.97772345 2.25156615,10.0055461 L1.12871815,13.0334941 L1.09492712,13.0805807 C0.476832732,15.1074118 0.17200942,17.1911685 0.0220616932,19.2960088 C-0.0342567016,20.086993 0.0298054725,20.8895731 0.0745081985,21.684774 C0.138218383,22.8215283 0.336036745,23.938956 0.632764288,25.0388141 C1.71055757,29.0348481 3.89782323,32.3495322 6.88797801,35.1655906 C7.44377017,35.6888138 8.01399392,36.1645991 8.59407338,36.6625221 C8.69333455,36.3234285 8.7725323,35.9843348 8.86264173,35.6452412 C8.95275116,35.3075531 9.04391656,34.971622 9.10481083,34.6328798 C9.04356457,34.971622 8.97492653,35.3075531 8.90699246,35.6452412 L8.61624875,36.6625221 L8.87601735,37.5413544 L9.11677849,38.9061623 L9.23152722,40.3303556 C9.23047125,40.6195515 9.21885558,40.9094502 9.23645507,41.1982947 C9.24067895,41.2720871 9.33782819,41.3402572 9.39203464,41.4112385 L9.87637284,41.580961 L10.3811265,41.7770379 L10.2945369,40.5109712 L10.290665,39.2642311 L10.4649001,37.3649554 L10.5912645,36.9513666 L10.9527582,36.3118325 C11.3990814,35.9534123 11.8781398,35.628023 12.2846882,35.2291926 C13.0203472,34.5074327 13.7542463,33.7765366 14.4124676,32.9862552 C15.2667472,31.9612437 16.0017023,30.8424104 16.5916374,29.6424055 C16.9865702,28.8398253 17.3582716,28.0210811 17.6659108,27.1823075 C17.9369431,26.442978 18.1048423,25.6660495 18.3185002,24.9056364 C18.3375077,24.8508192 18.362851,24.7970562 18.3748186,24.7411848 C18.816214,22.688702 18.8904839,20.6154871 18.7282166,18.5278651 Z M10.4216053,35.8778629 L10.1382534,35.2583582 L10.4216053,35.8778629 L10.8380094,36.2327692 L10.4216053,35.8778629 Z" id="Shape"></path>
            </g>
            <g id="node-logo" transform="translate(74.000000, 262.000000)" fill="#414141" fill-rule="nonzero">
                <path d="M29.7475538,7.97681092 L16.9585798,0.353691314 C16.1528771,-0.117897105 15.0974383,-0.117897105 14.2853618,0.353691314 L1.39643555,7.97681092 C0.565237708,8.46834658 0,9.39217162 0,10.3803042 L0,25.6062984 C0,26.594431 0.577116102,27.5185537 1.40860366,28.0127689 L4.8066934,30.00392 C6.4369305,30.8291997 6.88859917,30.8291997 7.63027448,30.8291997 C10.0447753,30.8291997 11.2986701,29.3289888 11.2986701,26.7123281 L11.2986701,11.6804472 C11.2989598,11.4681729 11.4278839,11.152292 11.2247923,11.152292 L9.59600378,11.152292 C9.38972533,11.152292 8.98122447,11.4681729 8.98122447,11.6801495 L8.98122447,26.7120304 C8.98122447,27.8719473 7.9336081,29.0262076 6.02553247,28.0458158 L2.51358399,25.9579057 C2.39132345,25.8894301 2.31773535,25.7515858 2.31773535,25.6062984 L2.31773535,10.3803042 C2.31773535,10.2368031 2.45187428,10.0927067 2.57587312,10.0191699 L15.4329305,2.40914993 C15.5531631,2.33918574 15.7232269,2.33918574 15.84288,2.40914993 L28.5797049,10.0173835 C28.7016757,10.0927067 28.6822647,10.2323373 28.6822647,10.3803042 L28.6822647,25.6062984 C28.6822647,25.7515858 28.7089186,25.8930028 28.5886861,25.9629669 L15.8026093,33.5774527 C15.6930963,33.6450351 15.5505556,33.6450351 15.4303231,33.5774527 L12.1515967,31.5681407 C12.0528032,31.5091921 11.9337296,31.488054 11.8387024,31.5425367 C10.9275427,32.0733714 10.7583481,32.1439311 9.90368314,32.4484986 C9.69305894,32.5238217 9.38248241,32.6545208 10.0218876,33.0228004 L14.3091186,35.6290409 C14.7193578,35.8731713 15.1860917,36 15.6554331,36 C16.1311483,36 16.5967234,35.8731713 17.0072523,35.6290409 L29.7478435,28.0127689 C30.5796208,27.5149811 31,26.594431 31,25.6062984 L31,10.3803042 C30.9997103,9.39217162 30.579331,8.47072834 29.7475538,7.97681092 Z M19.6216577,23.1935759 C16.2241474,23.1935759 15.4760984,22.2304518 15.2266521,20.4944467 C15.197101,20.3074786 15.0429716,20.0838909 14.8575527,20.0838909 L13.1974748,20.0838909 C12.9920655,20.0838909 12.8266371,20.33993 12.8266371,20.5501203 C12.8266371,22.7728976 14.0028878,25.4660723 19.6216577,25.4660723 C23.6887038,25.4660723 26.020925,23.8420099 26.020925,20.9678214 C26.020925,18.118046 24.1473257,17.3701734 20.2028299,16.8336821 C16.2157456,16.2921294 15.8107214,16.0185248 15.8107214,15.0586756 C15.8107214,14.267336 16.1537462,13.2119187 19.1059616,13.2119187 C21.7435445,13.2119187 22.7158344,13.7936635 23.1159335,15.6207709 C23.1504098,15.7925553 23.3030906,15.9158114 23.4754722,15.9158114 L25.1425033,15.9158114 C25.2450631,15.9158114 25.3426977,15.8732375 25.4145475,15.7979143 C25.4843693,15.7169345 25.5208736,15.615412 25.5118924,15.5064465 C25.2531752,12.3598442 23.2193624,10.8935734 19.1056719,10.8935734 C15.4459678,10.8935734 13.2632405,12.4816117 13.2632405,15.1435258 C13.2632405,18.030814 15.4352483,18.8287035 18.9480659,19.1856697 C23.1504098,19.6090275 23.4772105,20.2401938 23.4772105,21.0895889 C23.4772105,22.565089 22.3247166,23.1935759 19.6216577,23.1935759 Z" id="Shape"></path>
            </g>
            <g id="education-button" stroke="#414141">
                <polygon id="Polygon" points="40.5 0 81 40.5 40.5 81 0 40.5"></polygon>
            </g>
            <g id="work-button" transform="translate(49.000000, 47.000000)" stroke="#414141">
                <polygon id="Polygon-Copy" points="40.5 0 81 40.5 40.5 81 0 40.5"></polygon>
            </g>
            <g id="skills-button" transform="translate(0.000000, 94.000000)" stroke="#414141">
                <polygon id="Polygon-Copy-2" points="40.5 0 81 40.5 40.5 81 0 40.5"></polygon>
            </g>
            <g id="language-button" transform="translate(49.000000, 142.000000)" stroke="#414141">
                <polygon id="Polygon-Copy-3" points="40.5 0 81 40.5 40.5 81 0 40.5"></polygon>
            </g>
            <g id="language-button-copy" transform="translate(0.000000, 190.000000)" stroke="#414141">
                <polygon id="Polygon-Copy-3" points="40.5 0 81 40.5 40.5 81 0 40.5"></polygon>
            </g>
            <g id="language-button-copy-2" transform="translate(49.000000, 239.000000)" stroke="#414141">
                <polygon id="Polygon-Copy-3" points="40.5 0 81 40.5 40.5 81 0 40.5"></polygon>
            </g>
            <g id="language-button-copy-3" transform="translate(0.000000, 289.000000)" stroke="#414141">
                <polygon id="Polygon-Copy-3" points="40.5 0 81 40.5 40.5 81 0 40.5"></polygon>
            </g>
            <g id="language-button-copy-4" transform="translate(51.000000, 341.000000)" stroke="#414141">
                <polygon id="Polygon-Copy-3" points="40.5 0 81 40.5 40.5 81 0 40.5"></polygon>
            </g>
            <g id="javascript-logo" transform="translate(24.000000, 24.000000)" fill="#414141" fill-rule="nonzero">
                <path d="M0,0 L0,34 L34,34 L34,0 L0,0 Z M18.1449727,28.9801471 C17.6360603,30.0186004 16.6645756,30.7008384 15.5389,31.0301852 C13.8091495,31.4290576 12.1547016,31.201645 10.9239336,30.459853 C10.1002954,29.9523986 9.45705223,29.1712735 9.02040816,28.2713175 L11.6463409,26.6564381 C11.669235,26.666133 11.7381934,26.7913346 11.8303217,26.9530995 C12.1651833,27.5165068 12.4539807,27.9153793 13.0216456,28.195421 C13.5793804,28.3865473 14.8038043,28.508702 15.2765825,27.5231547 C15.56538,27.0217942 15.4735275,25.4102388 15.4735275,23.6272236 C15.4732517,20.8254217 15.4862158,18.0352536 15.4862158,15.2653061 L18.7159476,15.2653061 C18.7159476,18.3122483 18.7324976,21.1979796 18.7159476,24.1712413 C18.7228434,25.9938667 18.8803442,27.6187179 18.1449727,28.9801471 Z M31.0287091,28.118272 C29.9214883,31.9158992 23.7482568,32.0391952 21.2813581,29.5301753 C20.7601211,28.9396091 20.4333957,28.6310962 20.122449,27.9494219 C21.433431,27.1932789 21.433431,27.1932789 22.7090472,26.4532299 C23.4019442,27.5211591 24.0426088,28.108452 25.1952609,28.3487701 C26.7589722,28.5402609 28.3322049,28.0015227 27.9793634,26.3362078 C27.6167282,24.9761324 24.7774007,24.6452517 22.8450694,23.1907948 C20.8833572,21.8697268 20.4236021,18.6596653 22.0357373,16.8255003 C22.573025,16.1470993 23.4892705,15.6408218 24.4506754,15.397503 L25.4539752,15.2673875 C27.3803216,15.2283801 28.5843901,15.7384766 29.4682624,16.7281183 C29.7141905,16.9779837 29.9149593,17.2474892 30.2903806,17.8315087 C29.2642291,18.4872691 29.2674936,18.4809952 27.7976377,19.4351756 C27.4836985,18.7570474 26.9627334,18.3315124 26.4121156,18.1465683 C25.557352,17.8868828 24.4795121,18.1692089 24.2558916,19.0748347 C24.178359,19.3538875 24.1944096,19.613573 24.3176457,20.0745692 C24.6639582,20.8664462 25.8261319,21.2106931 26.8686061,21.6910567 C29.8695279,22.9114693 30.8828933,24.2199894 31.1320859,25.7775567 C31.3720291,27.1185375 31.0741405,27.9884293 31.0287091,28.118272 Z" id="Shape"></path>
            </g>
            <g id="express-logo" transform="translate(20.000000, 123.000000)" fill="#414141" fill-rule="nonzero">
                <path d="M42,24.8442236 C40.454125,25.2495626 39.4981234,24.8616951 38.6404339,23.5338605 C36.7148703,20.5602099 34.5892922,17.7228371 32.5382958,14.8330497 C32.2738698,14.4591594 31.9992736,14.0922578 31.6568758,13.6275156 C29.2295808,17.0030109 26.805676,20.2177684 24.5309345,23.5618149 C23.717316,24.7568661 22.8630167,25.277517 21.3442623,24.8547065 L30.4703489,12.229795 L21.9748166,0.827889102 C23.4359397,0.534367773 24.4461825,0.684622739 25.3411628,2.03342313 C27.3175775,5.01056805 29.4973969,7.8444466 31.6704361,10.8425573 C33.8570356,7.8549295 36.0097344,5.01755665 38.0437804,2.06836615 C38.8607889,0.873315022 39.7388188,0.419055822 41.206722,0.859337816 C40.0947769,2.37935899 39.0065622,3.87492005 37.9115674,5.3599982 C36.433494,7.36223298 34.9825411,9.38892788 33.4502264,11.349231 C32.9044241,12.0480914 32.992566,12.5023506 33.4807371,13.1627735 C36.3148413,17.0030109 39.1150447,20.8816856 42,24.8442236 Z" id="Shape"></path>
                <path d="M0.010385039,11.7288595 C0.259625974,10.4886041 0.425786597,9.22429942 0.771954562,8.00809329 C2.84896235,0.645579904 11.3646943,-2.41554909 17.2149329,2.14694171 C20.6419958,4.82328232 21.4935689,8.59558269 21.3239466,12.8488685 L2.0077742,12.8488685 C1.71699311,20.4793595 7.25221887,25.0865133 14.307122,22.7365557 C16.7822229,21.9120091 18.2395901,19.9880672 18.9700045,17.5831399 C19.3404042,16.3772406 19.9531215,16.188282 21.0954758,16.531843 C20.5104519,19.5414379 19.1846286,22.0563048 16.4152849,23.6298144 C12.2612693,25.9866432 6.33141208,25.2239377 3.21243872,21.9498009 C1.37082514,20.025859 0.588485541,17.6312384 0.242317576,15.0442237 C0.190392381,14.6319504 0.0830803116,14.2265484 0,13.8177107 C0.0069233593,13.121427 0.010385039,12.4251432 0.010385039,11.7288595 Z M2.04239099,11.2169535 L19.4996415,11.2169535 C19.385406,5.69936301 15.9237264,1.77933138 11.1916103,1.74497528 C5.99909083,1.70374795 2.26740017,5.53101809 2.04239099,11.2169535 Z" id="Shape"></path>
            </g>
            <g id="git-logo" transform="translate(69.000000, 163.000000)" fill="#414141" fill-rule="nonzero">
                <path d="M39.2463753,17.4899728 L21.785382,0.724154142 C20.7804966,-0.241384714 19.149617,-0.241384714 18.1431475,0.724154142 L14.5180201,4.20605639 L19.1173035,8.62246884 C20.1864991,8.27598215 21.4118764,8.50839289 22.263748,9.32639351 C23.1200549,10.1495656 23.3605051,11.3362597 22.9901674,12.3662895 L27.4228147,16.6232998 C28.4951782,16.2682954 29.7329107,16.4976641 30.5889008,17.3214446 C31.7863998,18.4704176 31.7863998,20.3330497 30.5889008,21.4826311 C29.3914017,22.6325167 27.452277,22.6325167 26.2541443,21.4826311 C25.3538024,20.6174791 25.131093,19.3474335 25.5872831,18.2821162 L21.4536938,14.3125773 L21.4530602,24.7591967 C21.7451486,24.8976088 22.0204467,25.082564 22.263748,25.3152789 C23.4609303,26.4642519 23.4609303,28.3262756 22.263748,29.4776822 C21.0665658,30.6266552 19.1261738,30.6266552 17.9302588,29.4776822 C16.7333934,28.3265798 16.6351858,26.4645561 17.8317344,25.3152789 C18.1276244,25.0314579 18.419396,24.8169952 18.7361947,24.6734116 L18.7361947,14.1300558 C18.419396,13.9864722 18.1279412,13.7735304 17.8314176,13.4878842 C16.9250566,12.617865 16.7555693,11.3402143 17.2206297,10.2706382 L12.711634,5.91658726 L0.751216371,17.4124012 C-0.254619462,18.3788526 -0.248283488,19.9448873 0.757552345,20.9107304 L18.2213968,37.676549 C19.226599,38.6420879 20.8587459,38.6420879 21.8655321,37.676549 L39.2451081,20.9886062 C40.2509439,20.022459 40.2518943,18.4555117 39.2463753,17.4899728 Z" id="Shape"></path>
            </g>
            <g id="html-logo" transform="translate(74.000000, 70.000000)" fill="#414141" fill-rule="nonzero">
                <path d="M0,0 L2.82123235,31.4882803 L15.4811072,34.9718713 L28.1759478,31.4922131 L31,0 L0,0 Z M25.1319495,7.4551263 L24.9551466,9.4698279 L24.8773195,10.3937478 L10.0267246,10.3937478 L10.3811763,14.3265172 L24.5242778,14.3265172 L24.4295317,15.3015632 L23.5178831,25.4478274 L23.4507714,26.0854979 L15.5,28.2622858 L15.5,28.2628476 L15.4904126,28.267904 L7.54499891,26.1826935 L7.00556688,20.2256714 L10.9011516,20.2256714 L11.1772122,23.2929507 L15.4878748,24.4393529 L15.5,24.4393529 L15.5,24.2859749 L19.8298374,23.1974405 L20.2821369,18.2592867 L6.8321478,18.2592867 L5.87820186,7.55176006 L5.7854297,6.46097837 L25.2250036,6.46097837 L25.1319495,7.4551263 Z" id="Shape"></path>
            </g>
        </g>
    </g>
</svg>